HIERARCHY
ROOT Hips
{
	OFFSET 0.000000 0.000000 0.000000
	CHANNELS 6 Xposition Yposition Zposition Zrotation Yrotation Xrotation 
	JOINT LowerBack
	{
		OFFSET 0.000000 0.000000 0.000000
		CHANNELS 3 Zrotation Yrotation Xrotation
		JOINT Spine
		{
			OFFSET 0.028270 2.035590 -0.193380
			CHANNELS 3 Zrotation Yrotation Xrotation
			JOINT Spine1
			{
				OFFSET 0.056720 2.048850 -0.042750
				CHANNELS 3 Zrotation Yrotation Xrotation
				JOINT Neck
				{
					OFFSET 0.000000 0.000000 0.000000
					CHANNELS 3 Zrotation Yrotation Xrotation
					JOINT Neck1
					{
						OFFSET -0.054170 1.746240 0.172020
						CHANNELS 3 Zrotation Yrotation Xrotation
						JOINT Head
						{
							OFFSET 0.104070 1.761360 -0.123970
							CHANNELS 3 Zrotation Yrotation Xrotation
							End Site
							{
								OFFSET 0.000000 0.000000 0.000000
							}
						}
					}
				}
				JOINT LeftShoulder
				{
					OFFSET 0.000000 0.000000 0.000000
					CHANNELS 3 Zrotation Yrotation Xrotation
					JOINT LeftArm
					{
						OFFSET 3.362410 1.200890 -0.311210
						CHANNELS 3 Zrotation Yrotation Xrotation
						JOINT LeftForeArm
						{
							OFFSET 4.983000 -0.000000 -0.000000
							CHANNELS 3 Zrotation Yrotation Xrotation
							JOINT LeftHand
							{
								OFFSET 3.483560 -0.000000 -0.000000
								CHANNELS 3 Zrotation Yrotation Xrotation
								JOINT LeftFingerBase
								{
									OFFSET 0.000000 0.000000 0.000000
									CHANNELS 3 Zrotation Yrotation Xrotation
									JOINT LeftHandIndex1
									{
										OFFSET 0.715260 -0.000000 -0.000000
										CHANNELS 3 Zrotation Yrotation Xrotation
										End Site
										{
											OFFSET 0.000000 0.000000 0.000000
										}
									}
								}
								JOINT LThumb
								{
									OFFSET 0.000000 0.000000 0.000000
									CHANNELS 3 Zrotation Yrotation Xrotation
									End Site
									{
										OFFSET 0.000000 0.000000 0.000000
									}
								}
							}
						}
					}
				}
				JOINT RightShoulder
				{
					OFFSET 0.000000 0.000000 0.000000
					CHANNELS 3 Zrotation Yrotation Xrotation
					JOINT RightArm
					{
						OFFSET -3.136600 1.374050 -0.404650
						CHANNELS 3 Zrotation Yrotation Xrotation
						JOINT RightForeArm
						{
							OFFSET -5.241900 -0.000000 -0.000000
							CHANNELS 3 Zrotation Yrotation Xrotation
							JOINT RightHand
							{
								OFFSET -3.444170 -0.000000 -0.000000
								CHANNELS 3 Zrotation Yrotation Xrotation
								JOINT RightFingerBase
								{
									OFFSET 0.000000 0.000000 0.000000
									CHANNELS 3 Zrotation Yrotation Xrotation
									JOINT RightHandIndex1
									{
										OFFSET -0.622530 -0.000000 -0.000000
										CHANNELS 3 Zrotation Yrotation Xrotation
										End Site
										{
											OFFSET 0.000000 0.000000 0.000000
										}
									}
								}
								JOINT RThumb
								{
									OFFSET 0.000000 0.000000 0.000000
									CHANNELS 3 Zrotation Yrotation Xrotation
									End Site
									{
										OFFSET 0.000000 0.000000 0.000000
									}
								}
							}
						}
					}
				}
			}
		}
	}
}
}
MOTION
Frames: 18
Frame Time: 0.008333
0.075743 17.168717 -0.543232 158.366292 -82.619070 -149.147923 -4.111905 -1.167087 -2.649570 -1.697762 -1.013394 -3.485249 -6.770418 -1.113050 0.113103 11.909838 -9.392764 -10.195408 -3.517381 -0.246185 -0.718764 0.000000 0.000000 0.000000 2.136192 12.081681 2.568603 -60.096052 21.136991 30.256571 -2.930973 -37.514415 -0.027476 -4.108711 12.632659 -0.451876 -0.078711 -0.141826 0.000000 0.000000 0.000000 0.000000 0.000000 0.000000 0.000000 19.345582 -3.002722 0.924243 64.230569 15.784957 37.962148 1.284709 60.632441 0.007172 -1.802874 8.768581 -0.148266 0.087469 -0.295850 -0.000000 0.000000 0.000000 0.000000 0.000000 0.000000 0.000000 
-0.005264 17.200477 -0.563741 159.151983 -82.249359 -149.890018 -4.242461 -1.019369 -2.615847 -1.714622 -0.853951 -3.467622 -6.670877 -0.951768 0.184292 11.772843 -9.476892 -10.195124 -3.424376 -0.238116 -0.718616 0.000000 0.000000 0.000000 2.113107 12.401027 2.542925 -59.420032 21.757860 31.348325 -2.900490 -38.022082 -0.028244 -4.339766 12.744734 -0.482608 -0.076386 -0.148829 0.000000 0.000000 0.000000 0.000000 0.000000 0.000000 0.000000 18.881918 -3.034405 0.995149 63.642329 17.476105 39.566350 1.208615 62.419284 0.007621 -1.627821 8.597775 -0.131962 0.087845 -0.304633 -0.000000 0.000000 0.000000 0.000000 0.000000 0.000000 0.000000 
-0.087664 17.227599 -0.582914 160.109138 -81.841748 -150.798083 -4.356830 -0.858304 -2.605163 -1.726812 -0.682747 -3.453697 -6.559638 -0.779195 0.261386 11.623814 -9.519313 -10.185585 -3.324367 -0.229596 -0.715829 0.000000 0.000000 0.000000 2.102258 12.737212 2.519215 -58.785744 22.365355 32.360354 -2.873168 -38.516743 -0.029036 -4.573923 12.855259 -0.514039 -0.074066 -0.155483 0.000000 0.000000 0.000000 0.000000 0.000000 0.000000 0.000000 18.364482 -3.021033 1.078848 63.024860 19.211241 41.077551 1.132766 64.249719 0.008433 -1.345485 8.440603 -0.107972 0.086432 -0.313365 -0.000000 0.000000 0.000000 0.000000 0.000000 0.000000 0.000000 
-0.171734 17.250158 -0.600727 161.209738 -81.403102 -151.838464 -4.450572 -0.687467 -2.625207 -1.733171 -0.503804 -3.443122 -6.436393 -0.599301 0.350996 11.468468 -9.535616 -10.171100 -3.217925 -0.220645 -0.711420 0.000000 0.000000 0.000000 2.101710 13.094101 2.494563 -58.195170 22.961483 33.283176 -2.848956 -38.998657 -0.029841 -4.813067 12.955333 -0.546171 -0.071735 -0.161791 0.000000 0.000000 0.000000 0.000000 0.000000 0.000000 0.000000 17.808528 -2.983298 1.177955 62.354338 21.023613 42.513693 1.056584 66.121479 0.009644 -0.961082 8.301159 -0.077199 0.083213 -0.321958 -0.000000 0.000000 0.000000 0.000000 0.000000 0.000000 0.000000 
-0.257791 17.268379 -0.617170 162.408325 -80.944582 -152.960595 -4.521360 -0.511446 -2.681425 -1.733401 -0.322027 -3.437174 -6.303098 -0.417124 0.451565 11.307591 -9.509488 -10.146472 -3.107010 -0.211508 -0.703893 0.000000 0.000000 0.000000 2.111960 13.470847 2.470003 -57.645021 23.552924 34.115983 -2.828202 -39.468185 -0.030645 -5.053758 13.035694 -0.578001 -0.069446 -0.167715 0.000000 0.000000 0.000000 0.000000 0.000000 0.000000 0.000000 17.217860 -2.906377 1.289627 61.627972 22.886886 43.825562 0.978749 68.038208 0.011324 -0.449749 8.181891 -0.037745 0.077359 -0.330464 0.000000 0.000000 0.000000 0.000000 0.000000 0.000000 0.000000 
-0.345940 17.282361 -0.632207 163.670369 -80.479177 -154.129375 -4.566973 -0.335209 -2.771262 -1.725963 -0.142312 -3.428825 -6.155812 -0.236995 0.587346 11.155106 -9.519999 -10.138237 -2.989961 -0.201692 -0.700551 0.000000 0.000000 0.000000 2.128079 13.898071 2.437019 -57.134484 24.091706 34.883856 -2.808510 -39.915123 -0.031417 -5.296577 13.091423 -0.609230 -0.067075 -0.173275 0.000000 0.000000 0.000000 0.000000 0.000000 0.000000 0.000000 16.632502 -2.882399 1.423508 60.798962 24.944948 45.105577 0.899298 69.967578 0.013230 0.079944 8.094202 0.002097 0.070982 -0.338699 0.000000 0.000000 0.000000 0.000000 0.000000 0.000000 0.000000 
-0.436200 17.292511 -0.646075 164.919502 -80.022481 -155.271452 -4.591905 -0.163487 -2.893191 -1.712926 0.030758 -3.425559 -6.001436 -0.064232 0.726542 10.995787 -9.473860 -10.110531 -2.871214 -0.192052 -0.691494 0.000000 0.000000 0.000000 2.153237 14.318415 2.405419 -56.660425 24.656059 35.547219 -2.792742 -40.358484 -0.032163 -5.531132 13.119143 -0.638458 -0.064832 -0.178448 0.000000 0.000000 0.000000 0.000000 0.000000 0.000000 0.000000 16.017152 -2.809975 1.564862 59.913456 27.015357 46.181031 0.815279 71.928078 0.015439 0.701877 8.025549 0.048217 0.061766 -0.347002 -0.000000 0.000000 0.000000 0.000000 0.000000 0.000000 0.000000 
-0.528377 17.298959 -0.658795 166.115530 -79.588639 -156.353152 -4.599955 -0.000769 -3.037511 -1.694312 0.193303 -3.421699 -5.837826 0.097703 0.882436 10.837105 -9.423665 -10.081006 -2.749658 -0.182245 -0.681710 0.000000 0.000000 0.000000 2.184536 14.750785 2.370792 -56.216612 25.207252 36.140428 -2.778999 -40.790400 -0.032860 -5.754370 13.118633 -0.665083 -0.062657 -0.183253 0.000000 0.000000 0.000000 0.000000 0.000000 0.000000 0.000000 15.395871 -2.749481 1.716976 58.946591 29.179737 47.094106 0.727063 73.887613 0.017702 1.330037 7.980992 0.094521 0.051284 -0.355327 -0.000000 0.000000 0.000000 0.000000 0.000000 0.000000 0.000000 
-0.622368 17.301866 -0.670577 167.217557 -79.190351 -157.339471 -4.597073 0.149786 -3.195018 -1.671452 0.342780 -3.418452 -5.666852 0.246131 1.041816 10.671578 -9.352584 -10.039635 -2.625815 -0.172453 -0.668463 0.000000 0.000000 0.000000 2.221683 15.164479 2.336076 -55.800226 25.777281 36.653011 -2.768219 -41.219178 -0.033515 -5.960774 13.094154 -0.688407 -0.060634 -0.187733 0.000000 0.000000 0.000000 0.000000 0.000000 0.000000 0.000000 14.753471 -2.682868 1.872172 57.915262 31.380265 47.795228 0.634264 75.833139 0.019864 1.938726 7.952590 0.139310 0.039623 -0.363817 -0.000000 0.000000 0.000000 0.000000 0.000000 0.000000 0.000000 
-0.717808 17.301308 -0.681569 168.193977 -78.836153 -158.208200 -4.589502 0.286133 -3.354719 -1.645534 0.477888 -3.415250 -5.489198 0.379795 1.197337 10.494041 -9.259557 -9.984357 -2.499201 -0.162662 -0.651275 0.000000 0.000000 0.000000 2.265426 15.548497 2.303267 -55.405233 26.370076 37.100840 -2.760487 -41.644981 -0.034131 -6.146593 13.050670 -0.708228 -0.058818 -0.191919 0.000000 0.000000 0.000000 0.000000 0.000000 0.000000 0.000000 14.079305 -2.607972 2.023051 56.829797 33.585874 48.262715 0.537842 77.744512 0.021779 2.496937 7.938589 0.180588 0.027168 -0.372629 -0.000000 0.000000 0.000000 0.000000 0.000000 0.000000 0.000000 
-0.814649 17.297267 -0.691787 169.054156 -78.531970 -158.971865 -4.580028 0.407468 -3.506534 -1.616411 0.598428 -3.406036 -5.302210 0.498898 1.363799 10.314833 -9.212968 -9.937835 -2.369432 -0.152515 -0.636581 0.000000 0.000000 0.000000 2.308110 15.919716 2.266527 -55.025545 26.949315 37.510136 -2.753873 -42.063500 -0.034705 -6.316105 12.996607 -0.725448 -0.057085 -0.195887 0.000000 0.000000 0.000000 0.000000 0.000000 0.000000 0.000000 13.412590 -2.599227 2.179469 55.639953 35.905272 48.554168 0.440161 79.593847 0.023184 2.920768 7.942979 0.212467 0.016001 -0.381766 -0.000000 0.000000 0.000000 0.000000 0.000000 0.000000 0.000000 
-0.912537 17.289710 -0.701356 169.788379 -78.275645 -159.628421 -4.572169 0.514667 -3.643296 -1.585421 0.705631 -3.394581 -5.109129 0.604460 1.520575 10.120337 -9.170082 -9.884855 -2.236658 -0.142243 -0.620201 0.000000 0.000000 0.000000 2.352774 16.255013 2.232225 -54.654421 27.544485 37.884905 -2.749860 -42.478354 -0.035262 -6.466935 12.938636 -0.740067 -0.055566 -0.199666 0.000000 0.000000 0.000000 0.000000 0.000000 0.000000 0.000000 12.718109 -2.606139 2.326006 54.377456 38.228293 48.610712 0.342833 81.372614 0.024072 3.232252 7.964097 0.236646 0.005352 -0.391585 -0.000000 0.000000 0.000000 0.000000 0.000000 0.000000 0.000000 
-1.011454 17.278546 -0.710254 170.425232 -78.062550 -160.206700 -4.564047 0.609720 -3.760544 -1.552325 0.801464 -3.379680 -4.910513 0.698596 1.668664 9.912165 -9.151524 -9.833462 -2.101267 -0.131767 -0.604436 0.000000 0.000000 0.000000 2.394824 16.561200 2.199323 -54.285305 28.144412 38.237604 -2.748098 -42.887139 -0.035823 -6.604152 12.884897 -0.753184 -0.054235 -0.203309 0.000000 0.000000 0.000000 0.000000 0.000000 0.000000 0.000000 12.007822 -2.648726 2.462904 53.017228 40.575573 48.446228 0.248593 83.065499 0.024335 3.408724 8.005146 0.251730 -0.004148 -0.402276 -0.000000 0.000000 0.000000 0.000000 0.000000 0.000000 0.000000 
-1.111428 17.263757 -0.718467 170.999866 -77.881736 -160.740497 -4.551556 0.695966 -3.856166 -1.517009 0.888899 -3.362643 -4.709290 0.784312 1.801702 9.687662 -9.150143 -9.783567 -1.963981 -0.121157 -0.589297 0.000000 0.000000 0.000000 2.432863 16.842348 2.169828 -53.911792 28.746624 38.578302 -2.748968 -43.284720 -0.036404 -6.730488 12.837987 -0.765299 -0.053125 -0.206824 0.000000 0.000000 0.000000 0.000000 0.000000 0.000000 0.000000 11.276897 -2.715534 2.583528 51.556848 42.912162 48.046426 0.160270 84.664251 0.024009 3.470536 8.067879 0.259016 -0.012949 -0.414084 0.000000 0.000000 0.000000 0.000000 0.000000 0.000000 0.000000 
-1.212668 17.245179 -0.725916 171.557676 -77.724022 -161.269125 -4.526985 0.775200 -3.934093 -1.477985 0.969048 -3.342235 -4.505855 0.862836 1.927194 9.453700 -9.198925 -9.748688 -1.826333 -0.110339 -0.578534 0.000000 0.000000 0.000000 2.455237 17.118752 2.139826 -53.525440 29.335982 38.904139 -2.751979 -43.673524 -0.037048 -6.857960 12.811116 -0.778615 -0.052167 -0.210297 0.000000 0.000000 0.000000 0.000000 0.000000 0.000000 0.000000 10.557473 -2.842731 2.694163 49.934562 45.305563 47.445874 0.080935 86.150068 0.022858 3.371577 8.160632 0.255216 -0.019875 -0.427261 -0.000000 0.000000 0.000000 0.000000 0.000000 0.000000 0.000000 
-1.315178 17.222957 -0.732454 172.141471 -77.572008 -161.833803 -4.483093 0.852985 -3.992730 -1.435608 1.046618 -3.323411 -4.307927 0.938832 2.026486 9.201583 -9.245349 -9.715295 -1.689313 -0.099603 -0.568390 0.000000 0.000000 0.000000 2.468968 17.388449 2.117117 -53.122578 29.919712 39.222049 -2.758650 -44.039872 -0.037745 -6.980537 12.792904 -0.791928 -0.051520 -0.213606 0.000000 0.000000 0.000000 0.000000 0.000000 0.000000 0.000000 9.813847 -2.966701 2.774717 48.205207 47.620408 46.588880 0.013407 87.527181 0.021176 3.213945 8.276690 0.247614 -0.027412 -0.441933 -0.000000 0.000000 0.000000 0.000000 0.000000 0.000000 0.000000 
-1.419325 17.197174 -0.738055 172.784270 -77.417210 -162.458033 -4.412447 0.930096 -4.039534 -1.388695 1.121570 -3.305826 -4.117705 1.012340 2.106914 8.940967 -9.317666 -9.695485 -1.555299 -0.088963 -0.562178 0.000000 0.000000 0.000000 2.461235 17.673886 2.097963 -52.693719 30.483015 39.520976 -2.768526 -44.386845 -0.038527 -7.107655 12.792505 -0.806641 -0.051130 -0.216798 0.000000 0.000000 0.000000 0.000000 0.000000 0.000000 0.000000 9.081952 -3.119481 2.830239 46.310989 49.916676 45.506258 -0.039323 88.778168 0.018763 2.964198 8.420436 0.233215 -0.034718 -0.458210 -0.000000 0.000000 0.000000 0.000000 0.000000 0.000000 0.000000 
-1.525321 17.168057 -0.742671 173.510996 -77.249310 -163.161401 -4.309914 1.009134 -4.076543 -1.337392 1.195827 -3.292203 -3.941100 1.085301 2.161197 8.673008 -9.396489 -9.685581 -1.425967 -0.078609 -0.558841 0.000000 0.000000 0.000000 2.431778 17.981608 2.085529 -52.233740 31.023553 39.795360 -2.782255 -44.707886 -0.039384 -7.236012 12.803609 -0.822253 -0.051093 -0.219782 0.000000 0.000000 0.000000 0.000000 0.000000 0.000000 0.000000 8.357175 -3.276923 2.850673 44.272505 52.135677 44.185524 -0.075003 89.899535 0.015736 2.671212 8.586465 0.215315 -0.042917 -0.476000 0.000000 0.000000 0.000000 0.000000 0.000000 0.000000 0.000000 
